<svg xmlns="http://www.w3.org/2000/svg" xmlns:xlink="http://www.w3.org/1999/xlink" contentStyleType="text/css" data-diagram-type="CLASS" height="359px" preserveAspectRatio="none" style="width:2267px;height:359px;background:#FFFFFF;" version="1.1" viewBox="0 0 2267 359" width="2267px" zoomAndPan="magnify"><defs/><g><!--cluster ??????????????--><g class="cluster" data-entity=".............." data-source-line="7" data-uid="ent0002" id="cluster_.............."><path d="M8.5,6 L146.0205,6 A3.75,3.75 0 0 1 148.5205,8.5 L155.5205,28.2969 L2257.73,28.2969 A2.5,2.5 0 0 1 2260.23,30.7969 L2260.23,349.5 A2.5,2.5 0 0 1 2257.73,352 L8.5,352 A2.5,2.5 0 0 1 6,349.5 L6,8.5 A2.5,2.5 0 0 1 8.5,6" fill="none" style="stroke:#000000;stroke-width:1.5;"/><line style="stroke:#000000;stroke-width:1.5;" x1="6" x2="155.5205" y1="28.2969" y2="28.2969"/><text fill="#000000" font-family="Arial" font-size="14" font-weight="bold" lengthAdjust="spacing" textLength="136.5205" x="10" y="20.9951">&#1048;&#1085;&#1092;&#1088;&#1072;&#1089;&#1090;&#1088;&#1091;&#1082;&#1090;&#1091;&#1088;&#1072;</text></g><!--class I???????????--><g class="entity" data-entity="I..........." data-source-line="13" data-uid="ent0003" id="entity_I..........."><rect fill="#F1F1F1" height="48" rx="2.5" ry="2.5" style="stroke:#181818;stroke-width:0.5;" width="131.251" x="1283.62" y="288"/><ellipse cx="1298.62" cy="304" fill="#ADD1B2" rx="11" ry="11" style="stroke:#181818;stroke-width:1;"/><path d="M1301.5888,309.6406 Q1301.0106,309.9375 1300.37,310.0781 Q1299.7294,310.2344 1299.0263,310.2344 Q1296.5263,310.2344 1295.1981,308.5938 Q1293.8856,306.9375 1293.8856,303.8125 Q1293.8856,300.6875 1295.1981,299.0313 Q1296.5263,297.375 1299.0263,297.375 Q1299.7294,297.375 1300.37,297.5313 Q1301.0263,297.6875 1301.5888,297.9844 L1301.5888,300.7031 Q1300.9638,300.125 1300.37,299.8594 Q1299.7763,299.5781 1299.1513,299.5781 Q1297.8075,299.5781 1297.12,300.6563 Q1296.4325,301.7188 1296.4325,303.8125 Q1296.4325,305.9063 1297.12,306.9844 Q1297.8075,308.0469 1299.1513,308.0469 Q1299.7763,308.0469 1300.37,307.7813 Q1300.9638,307.5 1301.5888,306.9219 L1301.5888,309.6406 Z " fill="#000000"/><text fill="#000000" font-family="Arial" font-size="14" lengthAdjust="spacing" textLength="99.251" x="1312.62" y="308.8467">I&#1056;&#1077;&#1087;&#1086;&#1079;&#1080;&#1090;&#1086;&#1088;&#1080;&#1081;</text><line style="stroke:#181818;stroke-width:0.5;" x1="1284.62" x2="1413.871" y1="320" y2="320"/><line style="stroke:#181818;stroke-width:0.5;" x1="1284.62" x2="1413.871" y1="328" y2="328"/></g><!--class ?????????????????????--><g class="entity" data-entity="....................." data-source-line="18" data-uid="ent0004" id="entity_....................."><rect fill="#F1F1F1" height="121.4531" rx="2.5" ry="2.5" style="stroke:#181818;stroke-width:0.5;" width="559.9961" x="22" y="148.27"/><ellipse cx="205.4629" cy="168.4028" fill="#ADD1B2" rx="11" ry="11" style="stroke:#181818;stroke-width:1;"/><path d="M208.4316,174.0434 Q207.8535,174.3403 207.2129,174.4809 Q206.5723,174.6372 205.8691,174.6372 Q203.3691,174.6372 202.041,172.9966 Q200.7285,171.3403 200.7285,168.2153 Q200.7285,165.0903 202.041,163.4341 Q203.3691,161.7778 205.8691,161.7778 Q206.5723,161.7778 207.2129,161.9341 Q207.8691,162.0903 208.4316,162.3872 L208.4316,165.1059 Q207.8066,164.5278 207.2129,164.2622 Q206.6191,163.9809 205.9941,163.9809 Q204.6504,163.9809 203.9629,165.0591 Q203.2754,166.1216 203.2754,168.2153 Q203.2754,170.3091 203.9629,171.3872 Q204.6504,172.4497 205.9941,172.4497 Q206.6191,172.4497 207.2129,172.1841 Q207.8066,171.9028 208.4316,171.3247 L208.4316,174.0434 Z " fill="#000000"/><text fill="#000000" font-family="Arial" font-size="12" font-style="italic" lengthAdjust="spacing" textLength="59.918" x="288.2891" y="164.4087">&#171;injector&#187;</text><text fill="#000000" font-family="Arial" font-size="14" lengthAdjust="spacing" textLength="184.5703" x="225.9629" y="180.2339">&#1050;&#1086;&#1085;&#1090;&#1077;&#1081;&#1085;&#1077;&#1088;&#1047;&#1072;&#1074;&#1080;&#1089;&#1080;&#1084;&#1086;&#1089;&#1090;&#1077;&#1081;</text><line style="stroke:#181818;stroke-width:0.5;" x1="23" x2="580.9961" y1="188.5356" y2="188.5356"/><line style="stroke:#181818;stroke-width:0.5;" x1="23" x2="580.9961" y1="196.5356" y2="196.5356"/><text fill="#000000" font-family="Arial" font-size="14" lengthAdjust="spacing" textLength="547.9961" x="28" y="213.5307">+&#1079;&#1072;&#1088;&#1077;&#1075;&#1080;&#1089;&#1090;&#1088;&#1080;&#1088;&#1086;&#1074;&#1072;&#1090;&#1100;&#1048;&#1085;&#1090;&#1077;&#1088;&#1092;&#1077;&#1081;&#1089;(&#1080;&#1085;&#1090;&#1077;&#1088;&#1092;&#1077;&#1081;&#1089;: Class, &#1088;&#1077;&#1072;&#1083;&#1080;&#1079;&#1072;&#1094;&#1080;&#1103;: Class): void</text><text fill="#000000" font-family="Arial" font-size="14" lengthAdjust="spacing" textLength="368.0879" x="28" y="229.8276">+&#1088;&#1072;&#1079;&#1088;&#1077;&#1096;&#1080;&#1090;&#1100;&#1048;&#1085;&#1090;&#1077;&#1088;&#1092;&#1077;&#1081;&#1089;(&#1080;&#1085;&#1090;&#1077;&#1088;&#1092;&#1077;&#1081;&#1089;: Class): Object</text><text fill="#000000" font-family="Arial" font-size="14" lengthAdjust="spacing" textLength="296.8574" x="28" y="246.1245">+&#1089;&#1086;&#1079;&#1076;&#1072;&#1090;&#1100;&#1050;&#1086;&#1085;&#1090;&#1088;&#1086;&#1083;&#1083;&#1077;&#1088;(&#1090;&#1080;&#1087;: Class): Object</text><text fill="#000000" font-family="Arial" font-size="14" lengthAdjust="spacing" textLength="323.0117" x="28" y="262.4214">+&#1089;&#1086;&#1079;&#1076;&#1072;&#1090;&#1100;&#1055;&#1088;&#1077;&#1076;&#1089;&#1090;&#1072;&#1074;&#1083;&#1077;&#1085;&#1080;&#1077;(&#1090;&#1080;&#1087;: Class): Object</text></g><!--class ????????????????????--><g class="entity" data-entity="...................." data-source-line="26" data-uid="ent0005" id="entity_...................."><rect fill="#F1F1F1" height="88.8594" rx="2.5" ry="2.5" style="stroke:#181818;stroke-width:0.5;" width="1078.502" x="810" y="164.57"/><ellipse cx="1255.2075" cy="184.7028" fill="#ADD1B2" rx="11" ry="11" style="stroke:#181818;stroke-width:1;"/><path d="M1258.1763,190.3434 Q1257.5981,190.6403 1256.9575,190.7809 Q1256.3169,190.9372 1255.6138,190.9372 Q1253.1138,190.9372 1251.7856,189.2966 Q1250.4731,187.6403 1250.4731,184.5153 Q1250.4731,181.3903 1251.7856,179.7341 Q1253.1138,178.0778 1255.6138,178.0778 Q1256.3169,178.0778 1256.9575,178.2341 Q1257.6138,178.3903 1258.1763,178.6872 L1258.1763,181.4059 Q1257.5513,180.8278 1256.9575,180.5622 Q1256.3638,180.2809 1255.7388,180.2809 Q1254.395,180.2809 1253.7075,181.3591 Q1253.02,182.4216 1253.02,184.5153 Q1253.02,186.6091 1253.7075,187.6872 Q1254.395,188.7497 1255.7388,188.7497 Q1256.3638,188.7497 1256.9575,188.4841 Q1257.5513,188.2028 1258.1763,187.6247 L1258.1763,190.3434 Z " fill="#000000"/><text fill="#000000" font-family="Arial" font-size="12" font-style="italic" lengthAdjust="spacing" textLength="56.9414" x="1337.0303" y="180.7087">&#171;factory&#187;</text><text fill="#000000" font-family="Arial" font-size="14" lengthAdjust="spacing" textLength="179.5869" x="1275.7075" y="196.5339">&#1060;&#1072;&#1073;&#1088;&#1080;&#1082;&#1072;&#1055;&#1088;&#1077;&#1076;&#1089;&#1090;&#1072;&#1074;&#1083;&#1077;&#1085;&#1080;&#1081;</text><line style="stroke:#181818;stroke-width:0.5;" x1="811" x2="1887.502" y1="204.8356" y2="204.8356"/><line style="stroke:#181818;stroke-width:0.5;" x1="811" x2="1887.502" y1="212.8356" y2="212.8356"/><text fill="#000000" font-family="Arial" font-size="14" lengthAdjust="spacing" textLength="746.7852" x="816" y="229.8307">+&#1089;&#1086;&#1079;&#1076;&#1072;&#1090;&#1100;&#1055;&#1088;&#1077;&#1076;&#1089;&#1090;&#1072;&#1074;&#1083;&#1077;&#1085;&#1080;&#1077;&#1050;&#1072;&#1088;&#1090;&#1086;&#1095;&#1077;&#1082;(&#1082;&#1086;&#1085;&#1090;&#1088;&#1086;&#1083;&#1083;&#1077;&#1088;: &#1050;&#1086;&#1085;&#1090;&#1088;&#1086;&#1083;&#1083;&#1077;&#1088;&#1053;&#1072;&#1087;&#1088;&#1072;&#1074;&#1083;&#1077;&#1085;&#1080;&#1081;): I&#1055;&#1088;&#1077;&#1076;&#1089;&#1090;&#1072;&#1074;&#1083;&#1077;&#1085;&#1080;&#1077;&#1050;&#1072;&#1088;&#1090;&#1086;&#1095;&#1077;&#1082;</text><text fill="#000000" font-family="Arial" font-size="14" lengthAdjust="spacing" textLength="1066.502" x="816" y="246.1276">+&#1089;&#1086;&#1079;&#1076;&#1072;&#1090;&#1100;&#1055;&#1088;&#1077;&#1076;&#1089;&#1090;&#1072;&#1074;&#1083;&#1077;&#1085;&#1080;&#1077;&#1040;&#1074;&#1090;&#1086;&#1084;&#1072;&#1090;&#1080;&#1095;&#1089;&#1082;&#1086;&#1075;&#1086;&#1058;&#1077;&#1089;&#1090;&#1080;&#1088;&#1086;&#1074;&#1072;&#1085;&#1080;&#1103;(&#1082;&#1086;&#1085;&#1090;&#1088;&#1086;&#1083;&#1083;&#1077;&#1088;: &#1050;&#1086;&#1085;&#1090;&#1088;&#1086;&#1083;&#1083;&#1077;&#1088;&#1058;&#1077;&#1089;&#1090;&#1080;&#1088;&#1086;&#1074;&#1072;&#1085;&#1080;&#1103;): I&#1055;&#1088;&#1077;&#1076;&#1089;&#1090;&#1072;&#1074;&#1083;&#1077;&#1085;&#1080;&#1077;&#1040;&#1074;&#1090;&#1086;&#1084;&#1072;&#1090;&#1080;&#1095;&#1077;&#1089;&#1082;&#1086;&#1075;&#1086;&#1058;&#1077;&#1089;&#1090;&#1080;&#1088;&#1086;&#1074;&#1072;&#1085;&#1080;&#1103;</text></g><!--class ???????????????????--><g class="entity" data-entity="..................." data-source-line="32" data-uid="ent0006" id="entity_..................."><rect fill="#F1F1F1" height="88.8594" rx="2.5" ry="2.5" style="stroke:#181818;stroke-width:0.5;" width="614.8682" x="1041.81" y="40.57"/><ellipse cx="1260.1122" cy="60.7028" fill="#ADD1B2" rx="11" ry="11" style="stroke:#181818;stroke-width:1;"/><path d="M1263.081,66.3434 Q1262.5029,66.6403 1261.8622,66.7809 Q1261.2216,66.9372 1260.5185,66.9372 Q1258.0185,66.9372 1256.6904,65.2966 Q1255.3779,63.6403 1255.3779,60.5153 Q1255.3779,57.3903 1256.6904,55.7341 Q1258.0185,54.0778 1260.5185,54.0778 Q1261.2216,54.0778 1261.8622,54.2341 Q1262.5185,54.3903 1263.081,54.6872 L1263.081,57.4059 Q1262.456,56.8278 1261.8622,56.5622 Q1261.2685,56.2809 1260.6435,56.2809 Q1259.2997,56.2809 1258.6122,57.3591 Q1257.9247,58.4216 1257.9247,60.5153 Q1257.9247,62.6091 1258.6122,63.6872 Q1259.2997,64.7497 1260.6435,64.7497 Q1261.2685,64.7497 1261.8622,64.4841 Q1262.456,64.2028 1263.081,63.6247 L1263.081,66.3434 Z " fill="#000000"/><text fill="#000000" font-family="Arial" font-size="12" font-style="italic" lengthAdjust="spacing" textLength="56.9414" x="1337.0234" y="56.7087">&#171;factory&#187;</text><text fill="#000000" font-family="Arial" font-size="14" lengthAdjust="spacing" textLength="169.7637" x="1280.6122" y="72.5339">&#1060;&#1072;&#1073;&#1088;&#1080;&#1082;&#1072;&#1050;&#1086;&#1085;&#1090;&#1088;&#1086;&#1083;&#1083;&#1077;&#1088;&#1086;&#1074;</text><line style="stroke:#181818;stroke-width:0.5;" x1="1042.81" x2="1655.6782" y1="80.8356" y2="80.8356"/><line style="stroke:#181818;stroke-width:0.5;" x1="1042.81" x2="1655.6782" y1="88.8356" y2="88.8356"/><text fill="#000000" font-family="Arial" font-size="14" lengthAdjust="spacing" textLength="594.501" x="1047.81" y="105.8307">+&#1089;&#1086;&#1079;&#1076;&#1072;&#1090;&#1100;&#1050;&#1086;&#1085;&#1090;&#1088;&#1086;&#1083;&#1083;&#1077;&#1088;&#1053;&#1072;&#1087;&#1088;&#1072;&#1074;&#1083;&#1077;&#1085;&#1080;&#1081;(&#1088;&#1077;&#1087;&#1086;&#1079;&#1080;&#1090;&#1086;&#1088;&#1080;&#1080;: List): &#1050;&#1086;&#1085;&#1090;&#1088;&#1086;&#1083;&#1083;&#1077;&#1088;&#1053;&#1072;&#1087;&#1088;&#1072;&#1074;&#1083;&#1077;&#1085;&#1080;&#1081;</text><text fill="#000000" font-family="Arial" font-size="14" lengthAdjust="spacing" textLength="602.8682" x="1047.81" y="122.1276">+&#1089;&#1086;&#1079;&#1076;&#1072;&#1090;&#1100;&#1050;&#1086;&#1085;&#1090;&#1088;&#1086;&#1083;&#1083;&#1077;&#1088;&#1058;&#1077;&#1089;&#1090;&#1080;&#1088;&#1086;&#1074;&#1072;&#1085;&#1080;&#1103;(&#1088;&#1077;&#1087;&#1086;&#1079;&#1080;&#1090;&#1086;&#1088;&#1080;&#1080;: List): &#1050;&#1086;&#1085;&#1090;&#1088;&#1086;&#1083;&#1083;&#1077;&#1088;&#1058;&#1077;&#1089;&#1090;&#1080;&#1088;&#1086;&#1074;&#1072;&#1085;&#1080;&#1103;</text></g><!--class I?????????????--><g class="entity" data-entity="I............." data-source-line="49" data-uid="ent0010" id="entity_I............."><rect fill="#F1F1F1" height="48" rx="2.5" ry="2.5" style="stroke:#181818;stroke-width:0.5;" width="150.9453" x="2056.89" y="207"/><ellipse cx="2071.89" cy="223" fill="#ADD1B2" rx="11" ry="11" style="stroke:#181818;stroke-width:1;"/><path d="M2074.8588,228.6406 Q2074.2806,228.9375 2073.64,229.0781 Q2072.9994,229.2344 2072.2963,229.2344 Q2069.7963,229.2344 2068.4681,227.5938 Q2067.1556,225.9375 2067.1556,222.8125 Q2067.1556,219.6875 2068.4681,218.0313 Q2069.7963,216.375 2072.2963,216.375 Q2072.9994,216.375 2073.64,216.5313 Q2074.2963,216.6875 2074.8588,216.9844 L2074.8588,219.7031 Q2074.2338,219.125 2073.64,218.8594 Q2073.0463,218.5781 2072.4213,218.5781 Q2071.0775,218.5781 2070.39,219.6563 Q2069.7025,220.7188 2069.7025,222.8125 Q2069.7025,224.9063 2070.39,225.9844 Q2071.0775,227.0469 2072.4213,227.0469 Q2073.0463,227.0469 2073.64,226.7813 Q2074.2338,226.5 2074.8588,225.9219 L2074.8588,228.6406 Z " fill="#000000"/><text fill="#000000" font-family="Arial" font-size="14" lengthAdjust="spacing" textLength="118.9453" x="2085.89" y="227.8467">I&#1055;&#1088;&#1077;&#1076;&#1089;&#1090;&#1072;&#1074;&#1083;&#1077;&#1085;&#1080;&#1077;</text><line style="stroke:#181818;stroke-width:0.5;" x1="2057.89" x2="2206.8353" y1="239" y2="239"/><line style="stroke:#181818;stroke-width:0.5;" x1="2057.89" x2="2206.8353" y1="247" y2="247"/></g><!--class ?????????????????????--><g class="entity" data-entity="....................." data-source-line="52" data-uid="ent0012" id="entity_....................."><rect fill="#F1F1F1" height="48" rx="2.5" ry="2.5" style="stroke:#181818;stroke-width:0.5;" width="219.5508" x="2022.59" y="124"/><ellipse cx="2037.59" cy="140" fill="#ADD1B2" rx="11" ry="11" style="stroke:#181818;stroke-width:1;"/><path d="M2040.5588,145.6406 Q2039.9806,145.9375 2039.34,146.0781 Q2038.6994,146.2344 2037.9963,146.2344 Q2035.4963,146.2344 2034.1681,144.5938 Q2032.8556,142.9375 2032.8556,139.8125 Q2032.8556,136.6875 2034.1681,135.0313 Q2035.4963,133.375 2037.9963,133.375 Q2038.6994,133.375 2039.34,133.5313 Q2039.9963,133.6875 2040.5588,133.9844 L2040.5588,136.7031 Q2039.9338,136.125 2039.34,135.8594 Q2038.7463,135.5781 2038.1213,135.5781 Q2036.7775,135.5781 2036.09,136.6563 Q2035.4025,137.7188 2035.4025,139.8125 Q2035.4025,141.9063 2036.09,142.9844 Q2036.7775,144.0469 2038.1213,144.0469 Q2038.7463,144.0469 2039.34,143.7813 Q2039.9338,143.5 2040.5588,142.9219 L2040.5588,145.6406 Z " fill="#000000"/><text fill="#000000" font-family="Arial" font-size="14" lengthAdjust="spacing" textLength="187.5508" x="2051.59" y="144.8467">&#1050;&#1086;&#1085;&#1090;&#1088;&#1086;&#1083;&#1083;&#1077;&#1088;&#1053;&#1072;&#1087;&#1088;&#1072;&#1074;&#1083;&#1077;&#1085;&#1080;&#1081;</text><line style="stroke:#181818;stroke-width:0.5;" x1="2023.59" x2="2241.1408" y1="156" y2="156"/><line style="stroke:#181818;stroke-width:0.5;" x1="2023.59" x2="2241.1408" y1="164" y2="164"/></g><!--class ??????????????????????--><g class="entity" data-entity="......................" data-source-line="53" data-uid="ent0014" id="entity_......................"><rect fill="#F1F1F1" height="48" rx="2.5" ry="2.5" style="stroke:#181818;stroke-width:0.5;" width="223.7344" x="2020.5" y="41"/><ellipse cx="2035.5" cy="57" fill="#ADD1B2" rx="11" ry="11" style="stroke:#181818;stroke-width:1;"/><path d="M2038.4688,62.6406 Q2037.8906,62.9375 2037.25,63.0781 Q2036.6094,63.2344 2035.9063,63.2344 Q2033.4063,63.2344 2032.0781,61.5938 Q2030.7656,59.9375 2030.7656,56.8125 Q2030.7656,53.6875 2032.0781,52.0313 Q2033.4063,50.375 2035.9063,50.375 Q2036.6094,50.375 2037.25,50.5313 Q2037.9063,50.6875 2038.4688,50.9844 L2038.4688,53.7031 Q2037.8438,53.125 2037.25,52.8594 Q2036.6563,52.5781 2036.0313,52.5781 Q2034.6875,52.5781 2034,53.6563 Q2033.3125,54.7188 2033.3125,56.8125 Q2033.3125,58.9063 2034,59.9844 Q2034.6875,61.0469 2036.0313,61.0469 Q2036.6563,61.0469 2037.25,60.7813 Q2037.8438,60.5 2038.4688,59.9219 L2038.4688,62.6406 Z " fill="#000000"/><text fill="#000000" font-family="Arial" font-size="14" lengthAdjust="spacing" textLength="191.7344" x="2049.5" y="61.8467">&#1050;&#1086;&#1085;&#1090;&#1088;&#1086;&#1083;&#1083;&#1077;&#1088;&#1058;&#1077;&#1089;&#1090;&#1080;&#1088;&#1086;&#1074;&#1072;&#1085;&#1080;&#1103;</text><line style="stroke:#181818;stroke-width:0.5;" x1="2021.5" x2="2243.2344" y1="73" y2="73"/><line style="stroke:#181818;stroke-width:0.5;" x1="2021.5" x2="2243.2344" y1="81" y2="81"/></g><!--reverse link ????????????????????? to ????????????????????--><g class="link" data-entity-1="....................." data-entity-2="...................." data-source-line="41" data-uid="lnk7" id="link_....................._...................."><path codeLine="41" d="M594.42,209 C664.95,209 731.08,209 809.69,209" fill="none" id="&#1050;&#1086;&#1085;&#1090;&#1077;&#1081;&#1085;&#1077;&#1088;&#1047;&#1072;&#1074;&#1080;&#1089;&#1080;&#1084;&#1086;&#1089;&#1090;&#1077;&#1081;-backto-&#1060;&#1072;&#1073;&#1088;&#1080;&#1082;&#1072;&#1055;&#1088;&#1077;&#1076;&#1089;&#1090;&#1072;&#1074;&#1083;&#1077;&#1085;&#1080;&#1081;" style="stroke:#181818;stroke-width:1;"/><polygon fill="none" points="582.42,209,588.42,213,594.42,209,588.42,205,582.42,209" style="stroke:#181818;stroke-width:1;"/><text fill="#000000" font-family="Arial" font-size="13" lengthAdjust="spacing" textLength="166.6831" x="613" y="205.0669">&#1092;&#1072;&#1073;&#1088;&#1080;&#1082;&#1072;&#1055;&#1088;&#1077;&#1076;&#1089;&#1090;&#1072;&#1074;&#1083;&#1077;&#1085;&#1080;&#1081;</text><text fill="#000000" font-family="Arial" font-size="13" lengthAdjust="spacing" textLength="8.271" x="589.9786" y="221.268">1</text><text fill="#000000" font-family="Arial" font-size="13" lengthAdjust="spacing" textLength="8.271" x="794.0481" y="221.1733">1</text></g><!--reverse link ????????????????????? to ???????????????????--><g class="link" data-entity-1="....................." data-entity-2="..................." data-source-line="42" data-uid="lnk8" id="link_....................._..................."><path codeLine="42" d="M594.1313,173.0439 C668.1613,163.9939 736.14,155.77 810,147 C884.96,138.1 965.81,128.69 1041.5,119.96" fill="none" id="&#1050;&#1086;&#1085;&#1090;&#1077;&#1081;&#1085;&#1077;&#1088;&#1047;&#1072;&#1074;&#1080;&#1089;&#1080;&#1084;&#1086;&#1089;&#1090;&#1077;&#1081;-backto-&#1060;&#1072;&#1073;&#1088;&#1080;&#1082;&#1072;&#1050;&#1086;&#1085;&#1090;&#1088;&#1086;&#1083;&#1083;&#1077;&#1088;&#1086;&#1074;" style="stroke:#181818;stroke-width:1;"/><polygon fill="none" points="582.22,174.5,588.661,177.7424,594.1313,173.0439,587.6903,169.8015,582.22,174.5" style="stroke:#181818;stroke-width:1;"/><text fill="#000000" font-family="Arial" font-size="13" lengthAdjust="spacing" textLength="157.5615" x="617.5" y="148.0669">&#1092;&#1072;&#1073;&#1088;&#1080;&#1082;&#1072;&#1050;&#1086;&#1085;&#1090;&#1088;&#1086;&#1083;&#1083;&#1077;&#1088;&#1086;&#1074;</text><text fill="#000000" font-family="Arial" font-size="13" lengthAdjust="spacing" textLength="8.271" x="589.7732" y="185.8516">1</text><text fill="#000000" font-family="Arial" font-size="13" lengthAdjust="spacing" textLength="8.271" x="1025.2229" y="133.1565">1</text></g><!--link ????????????????????? to I???????????--><g class="link" data-entity-1="....................." data-entity-2="I..........." data-source-line="46" data-uid="lnk9" id="link_....................._I..........."><path codeLine="46" d="M582.34,245.48 C656.28,254.5 736.09,263.67 810,271 C980.43,287.9 1175.8321,301.1899 1277.1321,307.6199" fill="none" id="&#1050;&#1086;&#1085;&#1090;&#1077;&#1081;&#1085;&#1077;&#1088;&#1047;&#1072;&#1074;&#1080;&#1089;&#1080;&#1084;&#1086;&#1089;&#1090;&#1077;&#1081;-to-I&#1056;&#1077;&#1087;&#1086;&#1079;&#1080;&#1090;&#1086;&#1088;&#1080;&#1081;" style="stroke:#181818;stroke-width:1;stroke-dasharray:7,7;"/><polygon fill="#181818" points="1283.12,308,1274.3915,303.4379,1278.13,307.6833,1273.8847,311.4218,1283.12,308" style="stroke:#181818;stroke-width:1;"/><text fill="#000000" font-family="Arial" font-size="13" lengthAdjust="spacing" textLength="70.4463" x="661" y="246.0669">&#171;&#1089;&#1086;&#1079;&#1076;&#1072;&#1077;&#1090;&#187;</text></g><!--link ???????????????????? to I?????????????--><g class="link" data-entity-1="...................." data-entity-2="I............." data-source-line="49" data-uid="lnk11" id="link_...................._I............."><path codeLine="49" d="M1888.76,224.17 C1954.24,226.01 2007.2024,227.5014 2050.6024,228.7214" fill="none" id="&#1060;&#1072;&#1073;&#1088;&#1080;&#1082;&#1072;&#1055;&#1088;&#1077;&#1076;&#1089;&#1090;&#1072;&#1074;&#1083;&#1077;&#1085;&#1080;&#1081;-to-I&#1055;&#1088;&#1077;&#1076;&#1089;&#1090;&#1072;&#1074;&#1083;&#1077;&#1085;&#1080;&#1077;" style="stroke:#181818;stroke-width:1;stroke-dasharray:7,7;"/><polygon fill="#181818" points="2056.6,228.89,2047.716,224.6387,2051.602,228.7495,2047.4912,232.6355,2056.6,228.89" style="stroke:#181818;stroke-width:1;"/><text fill="#000000" font-family="Arial" font-size="13" lengthAdjust="spacing" textLength="70.4463" x="1919.5" y="222.0669">&#171;&#1089;&#1086;&#1079;&#1076;&#1072;&#1077;&#1090;&#187;</text></g><!--link ??????????????????? to ?????????????????????--><g class="link" data-entity-1="..................." data-entity-2="....................." data-source-line="52" data-uid="lnk13" id="link_..................._....................."><path codeLine="52" d="M1657,109.74 C1786.05,120.15 1921.9194,131.1079 2016.5694,138.7379" fill="none" id="&#1060;&#1072;&#1073;&#1088;&#1080;&#1082;&#1072;&#1050;&#1086;&#1085;&#1090;&#1088;&#1086;&#1083;&#1083;&#1077;&#1088;&#1086;&#1074;-to-&#1050;&#1086;&#1085;&#1090;&#1088;&#1086;&#1083;&#1083;&#1077;&#1088;&#1053;&#1072;&#1087;&#1088;&#1072;&#1074;&#1083;&#1077;&#1085;&#1080;&#1081;" style="stroke:#181818;stroke-width:1;stroke-dasharray:7,7;"/><polygon fill="#181818" points="2022.55,139.22,2013.9005,134.5098,2017.5662,138.8182,2013.2577,142.4839,2022.55,139.22" style="stroke:#181818;stroke-width:1;"/><text fill="#000000" font-family="Arial" font-size="13" lengthAdjust="spacing" textLength="70.4463" x="1919.5" y="128.0669">&#171;&#1089;&#1086;&#1079;&#1076;&#1072;&#1077;&#1090;&#187;</text></g><!--link ??????????????????? to ??????????????????????--><g class="link" data-entity-1="..................." data-entity-2="......................" data-source-line="53" data-uid="lnk15" id="link_..................._......................"><path codeLine="53" d="M1657,77.15 C1784.98,73.87 1919.552,70.4234 2014.192,68.0034" fill="none" id="&#1060;&#1072;&#1073;&#1088;&#1080;&#1082;&#1072;&#1050;&#1086;&#1085;&#1090;&#1088;&#1086;&#1083;&#1083;&#1077;&#1088;&#1086;&#1074;-to-&#1050;&#1086;&#1085;&#1090;&#1088;&#1086;&#1083;&#1083;&#1077;&#1088;&#1058;&#1077;&#1089;&#1090;&#1080;&#1088;&#1086;&#1074;&#1072;&#1085;&#1080;&#1103;" style="stroke:#181818;stroke-width:1;stroke-dasharray:7,7;"/><polygon fill="#181818" points="2020.19,67.85,2011.0907,64.0814,2015.1916,67.9778,2011.2952,72.0788,2020.19,67.85" style="stroke:#181818;stroke-width:1;"/><text fill="#000000" font-family="Arial" font-size="13" lengthAdjust="spacing" textLength="70.4463" x="1919.5" y="65.0669">&#171;&#1089;&#1086;&#1079;&#1076;&#1072;&#1077;&#1090;&#187;</text></g><!--SRC=[hLPjJzDG5FxUNt4oFr2YeA2V5h84HaoM6FtWBoXRXvNHagwGe27P1We9HlocCV4r_e0vM5Os1t_Xz1_vtDi62kqTBTfbwNRFFSyvvtbEpst3h7laEUHQgoyygbckMVKinzQQQvQzORZ6EbKRHhEvw7ckjRBfcPMgOp-tNfdq8BQbPjQDpORtsB6zfyQwIOkkPJHYzgPdkgRZRM-OvIMZkhRgEfjshUmq79VkB2ulpotDQvgs0OknQbA1F_4us0jQt0tQGITe1Riyn7rNh1JejQOHhYdYZzpbOnx1SC13zebFyEU8y7iaNTjynZrYdmSmIPXZzeCt1CC8fZxt9D85tdSidSCmmAuEdo6SpxuqIWgeahhZb4AKEDJSBF5dx1jZLvzFUSpze1Kct8Dh6sv_uDuEpQHNx2tJRO9sSkfK1ekkqvYEHKw2AR4M5Ypx9JHqt589N55qtIKatOLVNv8WUSMz9IZ2UYTu9rdl2EnWJo05RHtGrvQAL1O9tIE9r0MFliHz2woZo3XTf2t7giL22-5u85oWb9yt6F2UhOYIueXjgS99b7f4ZondX0z0T63vV9uTuviiwKGIAQW52gZskJy9QUTI-ocQX-g_uFjRziMGkwG4FOsBUyL7xG9fwuOGTlkQibaB0Kte0Dcu-_Wtr14lmLkHqjZaBu0wbph6CW8NbUpXRfFn1-u907HuLwWGxCDJ97sCxqyarfQhKHSBd-0eJrKAY1lgIYGbK6vAAzak3vFjafRZMJIcKfj5uP2rLJ8hhKio4iEnI4-ifZUTfsVo9QFI-3RfJ1BcGfOh2YtW8luAdp5278Gbu8GfuRhbg9TB8l4HAXxWIEe7dQkYXYTEZebVc2kGCpCZxvbdIP4mPJDj_O_fgBeraSoavq0nRFruExqNf0xb8ogu7ejQ07UevIrcThQaFFQBw8_Bc498TCMrvpiDrx_FFowyv4IPS4wGdbNIy7qXSmE4bIc7t8tLFSfHdKftFLj_f5QcmXHrPPz6wZB_DPnYsgG7rAAtnvs_]--></g></svg>