<svg xmlns="http://www.w3.org/2000/svg" xmlns:xlink="http://www.w3.org/1999/xlink" contentStyleType="text/css" data-diagram-type="CLASS" height="624px" preserveAspectRatio="none" style="width:884px;height:624px;background:#FFFFFF;" version="1.1" viewBox="0 0 884 624" width="884px" zoomAndPan="magnify"><defs/><g><!--cluster ?????????????--><g class="cluster" data-entity="............." data-source-line="3" data-uid="ent0002" id="cluster_............."><path d="M8.5,6 L135.4863,6 A3.75,3.75 0 0 1 137.9863,8.5 L144.9863,28.2969 L874.5,28.2969 A2.5,2.5 0 0 1 877,30.7969 L877,467.41 A2.5,2.5 0 0 1 874.5,469.91 L8.5,469.91 A2.5,2.5 0 0 1 6,467.41 L6,8.5 A2.5,2.5 0 0 1 8.5,6" fill="none" style="stroke:#000000;stroke-width:1.5;"/><line style="stroke:#000000;stroke-width:1.5;" x1="6" x2="144.9863" y1="28.2969" y2="28.2969"/><text fill="#000000" font-family="sans-serif" font-size="14" font-weight="bold" lengthAdjust="spacing" textLength="125.9863" x="10" y="20.9951">&#1055;&#1088;&#1077;&#1076;&#1089;&#1090;&#1072;&#1074;&#1083;&#1077;&#1085;&#1080;&#1077;</text></g><!--cluster ??????????--><g class="cluster" data-entity=".........." data-source-line="29" data-uid="ent0007" id="cluster_.........."><path d="M223.5,518.91 L323.0127,518.91 A3.75,3.75 0 0 1 325.5127,521.41 L332.5127,541.2069 L729.5,541.2069 A2.5,2.5 0 0 1 732,543.7069 L732,615.41 A2.5,2.5 0 0 1 729.5,617.91 L223.5,617.91 A2.5,2.5 0 0 1 221,615.41 L221,521.41 A2.5,2.5 0 0 1 223.5,518.91" fill="none" style="stroke:#000000;stroke-width:1.5;"/><line style="stroke:#000000;stroke-width:1.5;" x1="221" x2="332.5127" y1="541.2069" y2="541.2069"/><text fill="#000000" font-family="sans-serif" font-size="14" font-weight="bold" lengthAdjust="spacing" textLength="98.5127" x="225" y="533.9051">&#1050;&#1086;&#1085;&#1090;&#1088;&#1086;&#1083;&#1083;&#1077;&#1088;</text></g><!--class I?????????????--><g class="entity" data-entity="I............." data-source-line="4" data-uid="ent0003" id="entity_I............."><rect fill="#F1F1F1" height="80.5938" rx="2.5" ry="2.5" style="stroke:#181818;stroke-width:0.5;" width="275.6758" x="292.16" y="207.16"/><ellipse cx="366.2752" cy="223.16" fill="#ADD1B2" rx="11" ry="11" style="stroke:#181818;stroke-width:1;"/><path d="M369.244,228.8006 Q368.6659,229.0975 368.0252,229.2381 Q367.3846,229.3944 366.6815,229.3944 Q364.1815,229.3944 362.8534,227.7537 Q361.5409,226.0975 361.5409,222.9725 Q361.5409,219.8475 362.8534,218.1912 Q364.1815,216.535 366.6815,216.535 Q367.3846,216.535 368.0252,216.6912 Q368.6815,216.8475 369.244,217.1444 L369.244,219.8631 Q368.619,219.285 368.0252,219.0194 Q367.4315,218.7381 366.8065,218.7381 Q365.4627,218.7381 364.7752,219.8162 Q364.0877,220.8787 364.0877,222.9725 Q364.0877,225.0662 364.7752,226.1444 Q365.4627,227.2069 366.8065,227.2069 Q367.4315,227.2069 368.0252,226.9412 Q368.619,226.66 369.244,226.0819 L369.244,228.8006 Z " fill="#000000"/><text fill="#000000" font-family="sans-serif" font-size="14" lengthAdjust="spacing" textLength="118.9453" x="386.7752" y="228.0067">I&#1055;&#1088;&#1077;&#1076;&#1089;&#1090;&#1072;&#1074;&#1083;&#1077;&#1085;&#1080;&#1077;</text><line style="stroke:#181818;stroke-width:0.5;" x1="293.16" x2="566.8358" y1="239.16" y2="239.16"/><line style="stroke:#181818;stroke-width:0.5;" x1="293.16" x2="566.8358" y1="247.16" y2="247.16"/><text fill="#000000" font-family="sans-serif" font-size="14" lengthAdjust="spacing" textLength="263.6758" x="298.16" y="264.1551">+&#1086;&#1090;&#1086;&#1073;&#1088;&#1072;&#1079;&#1080;&#1090;&#1100;(&#1076;&#1072;&#1085;&#1085;&#1099;&#1077;: Object): None</text><text fill="#000000" font-family="sans-serif" font-size="14" lengthAdjust="spacing" textLength="248.0146" x="298.16" y="280.452">+&#1086;&#1073;&#1085;&#1086;&#1074;&#1080;&#1090;&#1100;(&#1076;&#1072;&#1085;&#1085;&#1099;&#1077;: Object): None</text></g><!--class ????????????????????--><g class="entity" data-entity="...................." data-source-line="9" data-uid="ent0004" id="entity_...................."><rect fill="#F1F1F1" height="105.1563" rx="2.5" ry="2.5" style="stroke:#181818;stroke-width:0.5;" width="275.6758" x="292.16" y="41"/><ellipse cx="338.5282" cy="61.1328" fill="#ADD1B2" rx="11" ry="11" style="stroke:#181818;stroke-width:1;"/><path d="M341.4969,66.7734 Q340.9188,67.0703 340.2782,67.2109 Q339.6375,67.3672 338.9344,67.3672 Q336.4344,67.3672 335.1063,65.7266 Q333.7938,64.0703 333.7938,60.9453 Q333.7938,57.8203 335.1063,56.1641 Q336.4344,54.5078 338.9344,54.5078 Q339.6375,54.5078 340.2782,54.6641 Q340.9344,54.8203 341.4969,55.1172 L341.4969,57.8359 Q340.8719,57.2578 340.2782,56.9922 Q339.6844,56.7109 339.0594,56.7109 Q337.7157,56.7109 337.0282,57.7891 Q336.3407,58.8516 336.3407,60.9453 Q336.3407,63.0391 337.0282,64.1172 Q337.7157,65.1797 339.0594,65.1797 Q339.6844,65.1797 340.2782,64.9141 Q340.8719,64.6328 341.4969,64.0547 L341.4969,66.7734 Z " fill="#000000"/><text fill="#000000" font-family="sans-serif" font-size="12" font-style="italic" lengthAdjust="spacing" textLength="97.8047" x="397.3455" y="57.1387">&#171;abstract class&#187;</text><text fill="#000000" font-family="sans-serif" font-size="14" lengthAdjust="spacing" textLength="174.4395" x="359.0282" y="72.9639">&#1041;&#1072;&#1079;&#1086;&#1074;&#1086;&#1077;&#1055;&#1088;&#1077;&#1076;&#1089;&#1090;&#1072;&#1074;&#1083;&#1077;&#1085;&#1080;&#1077;</text><line style="stroke:#181818;stroke-width:0.5;" x1="293.16" x2="566.8358" y1="81.2656" y2="81.2656"/><text fill="#000000" font-family="sans-serif" font-size="14" lengthAdjust="spacing" textLength="165.498" x="298.16" y="98.2607">-id_&#1087;&#1088;&#1077;&#1076;&#1089;&#1090;&#1072;&#1074;&#1083;&#1077;&#1085;&#1080;&#1103;: int</text><line style="stroke:#181818;stroke-width:0.5;" x1="293.16" x2="566.8358" y1="105.5625" y2="105.5625"/><text fill="#000000" font-family="sans-serif" font-size="14" lengthAdjust="spacing" textLength="263.6758" x="298.16" y="122.5576">+&#1086;&#1090;&#1086;&#1073;&#1088;&#1072;&#1079;&#1080;&#1090;&#1100;(&#1076;&#1072;&#1085;&#1085;&#1099;&#1077;: Object): None</text><text fill="#000000" font-family="sans-serif" font-size="14" lengthAdjust="spacing" textLength="248.0146" x="298.16" y="138.8545">+&#1086;&#1073;&#1085;&#1086;&#1074;&#1080;&#1090;&#1100;(&#1076;&#1072;&#1085;&#1085;&#1099;&#1077;: Object): None</text></g><!--class I?????????????????????--><g class="entity" data-entity="I....................." data-source-line="15" data-uid="ent0005" id="entity_I....................."><rect fill="#F1F1F1" height="105.1563" rx="2.5" ry="2.5" style="stroke:#181818;stroke-width:0.5;" width="379.4316" x="22.28" y="348.75"/><ellipse cx="113.5398" cy="368.8828" fill="#ADD1B2" rx="11" ry="11" style="stroke:#181818;stroke-width:1;"/><path d="M116.5085,374.5234 Q115.9304,374.8203 115.2898,374.9609 Q114.6491,375.1172 113.946,375.1172 Q111.446,375.1172 110.1179,373.4766 Q108.8054,371.8203 108.8054,368.6953 Q108.8054,365.5703 110.1179,363.9141 Q111.446,362.2578 113.946,362.2578 Q114.6491,362.2578 115.2898,362.4141 Q115.946,362.5703 116.5085,362.8672 L116.5085,365.5859 Q115.8835,365.0078 115.2898,364.7422 Q114.696,364.4609 114.071,364.4609 Q112.7273,364.4609 112.0398,365.5391 Q111.3523,366.6016 111.3523,368.6953 Q111.3523,370.7891 112.0398,371.8672 Q112.7273,372.9297 114.071,372.9297 Q114.696,372.9297 115.2898,372.6641 Q115.8835,372.3828 116.5085,371.8047 L116.5085,374.5234 Z " fill="#000000"/><text fill="#000000" font-family="sans-serif" font-size="12" font-style="italic" lengthAdjust="spacing" textLength="68.2031" x="194.1443" y="364.8887">&#171;interface&#187;</text><text fill="#000000" font-family="sans-serif" font-size="14" lengthAdjust="spacing" textLength="188.4121" x="134.0398" y="380.7139">I&#1055;&#1088;&#1077;&#1076;&#1089;&#1090;&#1072;&#1074;&#1083;&#1077;&#1085;&#1080;&#1077;&#1050;&#1072;&#1088;&#1090;&#1086;&#1095;&#1077;&#1082;</text><line style="stroke:#181818;stroke-width:0.5;" x1="23.28" x2="400.7116" y1="389.0156" y2="389.0156"/><line style="stroke:#181818;stroke-width:0.5;" x1="23.28" x2="400.7116" y1="397.0156" y2="397.0156"/><text fill="#000000" font-family="sans-serif" font-size="14" lengthAdjust="spacing" textLength="367.4316" x="28.28" y="414.0107">+&#1087;&#1086;&#1082;&#1072;&#1079;&#1072;&#1090;&#1100;_&#1082;&#1072;&#1088;&#1090;&#1086;&#1095;&#1082;&#1080;(Object:&#1055;&#1086;&#1083;&#1077;&#1050;&#1072;&#1088;&#1090;&#1086;&#1095;&#1077;&#1082;): None</text><text fill="#000000" font-family="sans-serif" font-size="14" lengthAdjust="spacing" textLength="350.5605" x="28.28" y="430.3076">+&#1076;&#1086;&#1073;&#1072;&#1074;&#1080;&#1090;&#1100;_&#1082;&#1072;&#1088;&#1090;&#1086;&#1095;&#1082;&#1091;(Object:&#1053;&#1072;&#1079;&#1085;&#1072;&#1095;&#1077;&#1085;&#1080;&#1077;): None</text><text fill="#000000" font-family="sans-serif" font-size="14" lengthAdjust="spacing" textLength="330.9824" x="28.28" y="446.6045">-&#1091;&#1076;&#1072;&#1083;&#1080;&#1090;&#1100;_&#1082;&#1072;&#1088;&#1090;&#1086;&#1095;&#1082;&#1091;(id_&#1085;&#1072;&#1079;&#1085;&#1072;&#1095;&#1077;&#1085;&#1080;&#1103;: int): None</text></g><!--class I????????????????????????????????????????--><g class="entity" data-entity="I........................................" data-source-line="21" data-uid="ent0006" id="entity_I........................................"><rect fill="#F1F1F1" height="88.8594" rx="2.5" ry="2.5" style="stroke:#181818;stroke-width:0.5;" width="424.4121" x="436.79" y="356.9"/><ellipse cx="470.657" cy="377.0328" fill="#ADD1B2" rx="11" ry="11" style="stroke:#181818;stroke-width:1;"/><path d="M473.6258,382.6734 Q473.0477,382.9703 472.407,383.1109 Q471.7664,383.2672 471.0633,383.2672 Q468.5633,383.2672 467.2352,381.6266 Q465.9227,379.9703 465.9227,376.8453 Q465.9227,373.7203 467.2352,372.0641 Q468.5633,370.4078 471.0633,370.4078 Q471.7664,370.4078 472.407,370.5641 Q473.0633,370.7203 473.6258,371.0172 L473.6258,373.7359 Q473.0008,373.1578 472.407,372.8922 Q471.8133,372.6109 471.1883,372.6109 Q469.8445,372.6109 469.157,373.6891 Q468.4695,374.7516 468.4695,376.8453 Q468.4695,378.9391 469.157,380.0172 Q469.8445,381.0797 471.1883,381.0797 Q471.8133,381.0797 472.407,380.8141 Q473.0008,380.5328 473.6258,379.9547 L473.6258,382.6734 Z " fill="#000000"/><text fill="#000000" font-family="sans-serif" font-size="12" font-style="italic" lengthAdjust="spacing" textLength="68.2031" x="629.9908" y="373.0387">&#171;interface&#187;</text><text fill="#000000" font-family="sans-serif" font-size="14" lengthAdjust="spacing" textLength="350.4854" x="488.8497" y="388.8639">I&#1055;&#1088;&#1077;&#1076;&#1089;&#1090;&#1072;&#1074;&#1083;&#1077;&#1085;&#1080;&#1077;&#1040;&#1074;&#1090;&#1086;&#1084;&#1072;&#1090;&#1080;&#1095;&#1077;&#1089;&#1082;&#1086;&#1075;&#1086;&#1058;&#1077;&#1089;&#1090;&#1080;&#1088;&#1086;&#1074;&#1072;&#1085;&#1080;&#1103;</text><line style="stroke:#181818;stroke-width:0.5;" x1="437.79" x2="860.2021" y1="397.1656" y2="397.1656"/><line style="stroke:#181818;stroke-width:0.5;" x1="437.79" x2="860.2021" y1="405.1656" y2="405.1656"/><text fill="#000000" font-family="sans-serif" font-size="14" lengthAdjust="spacing" textLength="412.4121" x="442.79" y="422.1607">+&#1079;&#1072;&#1087;&#1091;&#1089;&#1090;&#1080;&#1090;&#1100;_&#1090;&#1077;&#1089;&#1090;&#1080;&#1088;&#1086;&#1074;&#1072;&#1085;&#1080;&#1077;(&#1087;&#1091;&#1090;&#1100;_&#1082;_&#1076;&#1086;&#1082;&#1091;&#1084;&#1077;&#1085;&#1090;&#1072;&#1094;&#1080;&#1080;: path)</text><text fill="#000000" font-family="sans-serif" font-size="14" lengthAdjust="spacing" textLength="345.3789" x="442.79" y="438.4576">+&#1087;&#1088;&#1086;&#1089;&#1084;&#1086;&#1090;&#1088;&#1077;&#1090;&#1100;_&#1088;&#1077;&#1079;&#1091;&#1083;&#1100;&#1090;&#1072;&#1090;&#1099;(List&lt;&#1056;&#1077;&#1079;&#1091;&#1083;&#1100;&#1090;&#1072;&#1090;&#1099;&gt;)</text></g><!--class ?????????????????????--><g class="entity" data-entity="....................." data-source-line="30" data-uid="ent0008" id="entity_....................."><rect fill="#F1F1F1" height="48" rx="2.5" ry="2.5" style="stroke:#181818;stroke-width:0.5;" width="219.5508" x="237.22" y="553.91"/><ellipse cx="252.22" cy="569.91" fill="#ADD1B2" rx="11" ry="11" style="stroke:#181818;stroke-width:1;"/><path d="M255.1888,575.5506 Q254.6106,575.8475 253.97,575.9881 Q253.3294,576.1444 252.6263,576.1444 Q250.1263,576.1444 248.7981,574.5038 Q247.4856,572.8475 247.4856,569.7225 Q247.4856,566.5975 248.7981,564.9413 Q250.1263,563.285 252.6263,563.285 Q253.3294,563.285 253.97,563.4413 Q254.6263,563.5975 255.1888,563.8944 L255.1888,566.6131 Q254.5638,566.035 253.97,565.7694 Q253.3763,565.4881 252.7513,565.4881 Q251.4075,565.4881 250.72,566.5663 Q250.0325,567.6288 250.0325,569.7225 Q250.0325,571.8163 250.72,572.8944 Q251.4075,573.9569 252.7513,573.9569 Q253.3763,573.9569 253.97,573.6913 Q254.5638,573.41 255.1888,572.8319 L255.1888,575.5506 Z " fill="#000000"/><text fill="#000000" font-family="sans-serif" font-size="14" lengthAdjust="spacing" textLength="187.5508" x="266.22" y="574.7567">&#1050;&#1086;&#1085;&#1090;&#1088;&#1086;&#1083;&#1083;&#1077;&#1088;&#1053;&#1072;&#1087;&#1088;&#1072;&#1074;&#1083;&#1077;&#1085;&#1080;&#1081;</text><line style="stroke:#181818;stroke-width:0.5;" x1="238.22" x2="455.7708" y1="585.91" y2="585.91"/><line style="stroke:#181818;stroke-width:0.5;" x1="238.22" x2="455.7708" y1="593.91" y2="593.91"/></g><!--class ??????????????????????--><g class="entity" data-entity="......................" data-source-line="33" data-uid="ent0009" id="entity_......................"><rect fill="#F1F1F1" height="48" rx="2.5" ry="2.5" style="stroke:#181818;stroke-width:0.5;" width="223.7344" x="492.13" y="553.91"/><ellipse cx="507.13" cy="569.91" fill="#ADD1B2" rx="11" ry="11" style="stroke:#181818;stroke-width:1;"/><path d="M510.0988,575.5506 Q509.5206,575.8475 508.88,575.9881 Q508.2394,576.1444 507.5363,576.1444 Q505.0363,576.1444 503.7081,574.5038 Q502.3956,572.8475 502.3956,569.7225 Q502.3956,566.5975 503.7081,564.9413 Q505.0363,563.285 507.5363,563.285 Q508.2394,563.285 508.88,563.4413 Q509.5363,563.5975 510.0988,563.8944 L510.0988,566.6131 Q509.4738,566.035 508.88,565.7694 Q508.2863,565.4881 507.6613,565.4881 Q506.3175,565.4881 505.63,566.5663 Q504.9425,567.6288 504.9425,569.7225 Q504.9425,571.8163 505.63,572.8944 Q506.3175,573.9569 507.6613,573.9569 Q508.2863,573.9569 508.88,573.6913 Q509.4738,573.41 510.0988,572.8319 L510.0988,575.5506 Z " fill="#000000"/><text fill="#000000" font-family="sans-serif" font-size="14" lengthAdjust="spacing" textLength="191.7344" x="521.13" y="574.7567">&#1050;&#1086;&#1085;&#1090;&#1088;&#1086;&#1083;&#1083;&#1077;&#1088;&#1058;&#1077;&#1089;&#1090;&#1080;&#1088;&#1086;&#1074;&#1072;&#1085;&#1080;&#1103;</text><line style="stroke:#181818;stroke-width:0.5;" x1="493.13" x2="714.8644" y1="585.91" y2="585.91"/><line style="stroke:#181818;stroke-width:0.5;" x1="493.13" x2="714.8644" y1="593.91" y2="593.91"/></g><!--reverse link I????????????? to I?????????????????????--><g class="link" data-entity-1="I............." data-entity-2="I....................." data-source-line="38" data-uid="lnk10" id="link_I............._I....................."><path codeLine="38" d="M358.2404,298.4488 C331.8704,316.8188 314.97,328.59 286.72,348.27" fill="none" id="I&#1055;&#1088;&#1077;&#1076;&#1089;&#1090;&#1072;&#1074;&#1083;&#1077;&#1085;&#1080;&#1077;-backto-I&#1055;&#1088;&#1077;&#1076;&#1089;&#1090;&#1072;&#1074;&#1083;&#1077;&#1085;&#1080;&#1077;&#1050;&#1072;&#1088;&#1090;&#1086;&#1095;&#1077;&#1082;" style="stroke:#181818;stroke-width:1;"/><polygon fill="none" points="373.01,288.16,354.8108,293.5257,361.6701,303.372,373.01,288.16" style="stroke:#181818;stroke-width:1;"/></g><!--reverse link I????????????? to I????????????????????????????????????????--><g class="link" data-entity-1="I............." data-entity-2="I........................................" data-source-line="39" data-uid="lnk11" id="link_I............._I........................................"><path codeLine="39" d="M502.0403,298.419 C532.3303,319.429 554.8,335 585.92,356.58" fill="none" id="I&#1055;&#1088;&#1077;&#1076;&#1089;&#1090;&#1072;&#1074;&#1083;&#1077;&#1085;&#1080;&#1077;-backto-I&#1055;&#1088;&#1077;&#1076;&#1089;&#1090;&#1072;&#1074;&#1083;&#1077;&#1085;&#1080;&#1077;&#1040;&#1074;&#1090;&#1086;&#1084;&#1072;&#1090;&#1080;&#1095;&#1077;&#1089;&#1082;&#1086;&#1075;&#1086;&#1058;&#1077;&#1089;&#1090;&#1080;&#1088;&#1086;&#1074;&#1072;&#1085;&#1080;&#1103;" style="stroke:#181818;stroke-width:1;"/><polygon fill="none" points="487.25,288.16,498.6207,303.3491,505.46,293.4889,487.25,288.16" style="stroke:#181818;stroke-width:1;"/></g><!--link ???????????????????? to I?????????????--><g class="link" data-entity-1="...................." data-entity-2="I............." data-source-line="40" data-uid="lnk12" id="link_...................._I............."><path codeLine="40" d="M430,146.42 C430,166.19 430,170.38 430,188.83" fill="none" id="&#1041;&#1072;&#1079;&#1086;&#1074;&#1086;&#1077;&#1055;&#1088;&#1077;&#1076;&#1089;&#1090;&#1072;&#1074;&#1083;&#1077;&#1085;&#1080;&#1077;-to-I&#1055;&#1088;&#1077;&#1076;&#1089;&#1090;&#1072;&#1074;&#1083;&#1077;&#1085;&#1080;&#1077;" style="stroke:#181818;stroke-width:1;stroke-dasharray:7,7;"/><polygon fill="none" points="430,206.83,436,188.83,424,188.83,430,206.83" style="stroke:#181818;stroke-width:1;"/></g><!--link I????????????????????? to ?????????????????????--><g class="link" data-entity-1="I....................." data-entity-2="....................." data-source-line="41" data-uid="lnk13" id="link_I....................._....................."><path codeLine="41" d="M259.4797,463.7336 C284.9697,496.7036 305.7189,523.5342 325.2589,548.7942" fill="none" id="I&#1055;&#1088;&#1077;&#1076;&#1089;&#1090;&#1072;&#1074;&#1083;&#1077;&#1085;&#1080;&#1077;&#1050;&#1072;&#1088;&#1090;&#1086;&#1095;&#1077;&#1082;-&#1050;&#1086;&#1085;&#1090;&#1088;&#1086;&#1083;&#1083;&#1077;&#1088;&#1053;&#1072;&#1087;&#1088;&#1072;&#1074;&#1083;&#1077;&#1085;&#1080;&#1081;" style="stroke:#181818;stroke-width:1;"/><polygon fill="none" points="252.14,454.24,252.6453,461.4334,259.4797,463.7336,258.9744,456.5402,252.14,454.24" style="stroke:#181818;stroke-width:1;"/><polygon fill="#181818" points="328.93,553.54,326.5872,543.9739,325.8707,549.5852,320.2594,548.8687,328.93,553.54" style="stroke:#181818;stroke-width:1;"/><text fill="#000000" font-family="sans-serif" font-size="13" lengthAdjust="spacing" textLength="80.9517" x="288" y="498.9769">&#1082;&#1086;&#1085;&#1090;&#1088;&#1086;&#1083;&#1083;&#1077;&#1088;</text><text fill="#000000" font-family="sans-serif" font-size="13" lengthAdjust="spacing" textLength="8.271" x="248.7883" y="474.0557">1</text><text fill="#000000" font-family="sans-serif" font-size="13" lengthAdjust="spacing" textLength="8.271" x="315.5846" y="542.8548">1</text></g><!--link I???????????????????????????????????????? to ??????????????????????--><g class="link" data-entity-1="I........................................" data-entity-2="......................" data-source-line="42" data-uid="lnk14" id="link_I........................................_......................"><path codeLine="42" d="M634.7648,457.5502 C625.9648,491.6902 618.5681,520.41 611.4981,547.83" fill="none" id="I&#1055;&#1088;&#1077;&#1076;&#1089;&#1090;&#1072;&#1074;&#1083;&#1077;&#1085;&#1080;&#1077;&#1040;&#1074;&#1090;&#1086;&#1084;&#1072;&#1090;&#1080;&#1095;&#1077;&#1089;&#1082;&#1086;&#1075;&#1086;&#1058;&#1077;&#1089;&#1090;&#1080;&#1088;&#1086;&#1074;&#1072;&#1085;&#1080;&#1103;-&#1050;&#1086;&#1085;&#1090;&#1088;&#1086;&#1083;&#1083;&#1077;&#1088;&#1058;&#1077;&#1089;&#1090;&#1080;&#1088;&#1086;&#1074;&#1072;&#1085;&#1080;&#1103;" style="stroke:#181818;stroke-width:1;"/><polygon fill="none" points="637.76,445.93,632.389,450.7417,634.7648,457.5502,640.1358,452.7385,637.76,445.93" style="stroke:#181818;stroke-width:1;"/><polygon fill="#181818" points="610,553.64,616.1204,545.9237,611.2484,548.7984,608.3738,543.9263,610,553.64" style="stroke:#181818;stroke-width:1;"/><text fill="#000000" font-family="sans-serif" font-size="13" lengthAdjust="spacing" textLength="80.9517" x="627" y="498.9769">&#1082;&#1086;&#1085;&#1090;&#1088;&#1086;&#1083;&#1083;&#1077;&#1088;</text><text fill="#000000" font-family="sans-serif" font-size="13" lengthAdjust="spacing" textLength="8.271" x="627.4477" y="465.9849">1</text><text fill="#000000" font-family="sans-serif" font-size="13" lengthAdjust="spacing" textLength="8.271" x="602.5212" y="542.9791">1</text></g><!--SRC=[lLJBIiD05DtdAmPNBIMYsn02BWNHXHzGqXWnFjBIZ1khq0VOXOAwBOZY5qHjiROc_OKxV-IzDwrAczPMHMWXaxddt7FEdKbmuFabksmV2UVG3e8rASjUuLYwwqxHt_PENB6YQRvzv0Obst45tAagTA2jQgeE8Jn17rSHTA5JqHWlrcULv236bp4yOaa8Bz1LTNMPWJOk8eZK1NGCiLNOTnsPDSHcqNS90O-u6IFHzzLdsb05t30_eM9iFrMIQTg5G9PjHoRsBQkYwTvE7WRf27Lb2C-N_sTaHfpGWb1LIOPgugfdcgZCBU_YdCX63WROhCVoGcgOfyK7e0VTJDBJW3iix4yIVafli_Xm97sCIJK-c6wvNOIxpP7C4Okk6kouFus3Oe_6ySF05yhb6fvuE6_a6ocGIjMmNGpF-7-W5R-lyZ32fCr4UfWQdeB6i9OKuqCA53ePhaiyvJahj8FTKGzfK-TOr3L4oPPxMHeBeL7G6vqXCf6GaviNnFNL9QFgwYApuGNIXFl97IjBKU3lwzriOUU8AMcSc8UgZcvbsXuFQy07-3EzrygNIvG6cX8VmKZEZBa8yrJN5pdGloFxqIdGvlrmYENbKsjMVsq1es9fTKaKTTtYX_bdPGZsCrQh_NagS-YRWanN-0u0]--></g></svg>