<svg xmlns="http://www.w3.org/2000/svg" xmlns:xlink="http://www.w3.org/1999/xlink" contentStyleType="text/css" data-diagram-type="CLASS" height="621px" preserveAspectRatio="none" style="width:1550px;height:621px;background:#FFFFFF;" version="1.1" viewBox="0 0 1550 621" width="1550px" zoomAndPan="magnify"><defs/><g><!--cluster ??????????--><g class="cluster" data-entity=".........." data-source-line="6" data-uid="ent0002" id="cluster_.........."><path d="M8.5,6 L107.3018,6 A3.75,3.75 0 0 1 109.8018,8.5 L116.8018,28.2969 L1540.51,28.2969 A2.5,2.5 0 0 1 1543.01,30.7969 L1543.01,611.5 A2.5,2.5 0 0 1 1540.51,614 L8.5,614 A2.5,2.5 0 0 1 6,611.5 L6,8.5 A2.5,2.5 0 0 1 8.5,6" fill="none" style="stroke:#000000;stroke-width:1.5;"/><line style="stroke:#000000;stroke-width:1.5;" x1="6" x2="116.8018" y1="28.2969" y2="28.2969"/><text fill="#000000" font-family="Arial" font-size="14" font-weight="bold" lengthAdjust="spacing" textLength="97.8018" x="10" y="20.9951">&#1058;&#1086;&#1095;&#1082;&#1072;&#1042;&#1093;&#1086;&#1076;&#1072;</text></g><!--class IController--><g class="entity" data-entity="IController" data-source-line="10" data-uid="ent0003" id="entity_IController"><rect fill="#F1F1F1" height="48" rx="2.5" ry="2.5" style="stroke:#181818;stroke-width:0.5;" width="124.791" x="824.94" y="550"/><ellipse cx="839.94" cy="566" fill="#ADD1B2" rx="11" ry="11" style="stroke:#181818;stroke-width:1;"/><path d="M842.9088,571.6406 Q842.3306,571.9375 841.69,572.0781 Q841.0494,572.2344 840.3463,572.2344 Q837.8463,572.2344 836.5181,570.5938 Q835.2056,568.9375 835.2056,565.8125 Q835.2056,562.6875 836.5181,561.0313 Q837.8463,559.375 840.3463,559.375 Q841.0494,559.375 841.69,559.5313 Q842.3463,559.6875 842.9088,559.9844 L842.9088,562.7031 Q842.2838,562.125 841.69,561.8594 Q841.0963,561.5781 840.4713,561.5781 Q839.1275,561.5781 838.44,562.6563 Q837.7525,563.7188 837.7525,565.8125 Q837.7525,567.9063 838.44,568.9844 Q839.1275,570.0469 840.4713,570.0469 Q841.0963,570.0469 841.69,569.7813 Q842.2838,569.5 842.9088,568.9219 L842.9088,571.6406 Z " fill="#000000"/><text fill="#000000" font-family="Arial" font-size="14" lengthAdjust="spacing" textLength="92.791" x="853.94" y="570.8467">I&#1050;&#1086;&#1085;&#1090;&#1088;&#1086;&#1083;&#1083;&#1077;&#1088;</text><line style="stroke:#181818;stroke-width:0.5;" x1="825.94" x2="948.731" y1="582" y2="582"/><line style="stroke:#181818;stroke-width:0.5;" x1="825.94" x2="948.731" y1="590" y2="590"/></g><!--class IPresentation--><g class="entity" data-entity="IPresentation" data-source-line="11" data-uid="ent0004" id="entity_IPresentation"><rect fill="#F1F1F1" height="48" rx="2.5" ry="2.5" style="stroke:#181818;stroke-width:0.5;" width="150.9453" x="811.86" y="467"/><ellipse cx="826.86" cy="483" fill="#ADD1B2" rx="11" ry="11" style="stroke:#181818;stroke-width:1;"/><path d="M829.8288,488.6406 Q829.2506,488.9375 828.61,489.0781 Q827.9694,489.2344 827.2663,489.2344 Q824.7663,489.2344 823.4381,487.5938 Q822.1256,485.9375 822.1256,482.8125 Q822.1256,479.6875 823.4381,478.0313 Q824.7663,476.375 827.2663,476.375 Q827.9694,476.375 828.61,476.5313 Q829.2663,476.6875 829.8288,476.9844 L829.8288,479.7031 Q829.2038,479.125 828.61,478.8594 Q828.0163,478.5781 827.3913,478.5781 Q826.0475,478.5781 825.36,479.6563 Q824.6725,480.7188 824.6725,482.8125 Q824.6725,484.9063 825.36,485.9844 Q826.0475,487.0469 827.3913,487.0469 Q828.0163,487.0469 828.61,486.7813 Q829.2038,486.5 829.8288,485.9219 L829.8288,488.6406 Z " fill="#000000"/><text fill="#000000" font-family="Arial" font-size="14" lengthAdjust="spacing" textLength="118.9453" x="840.86" y="487.8467">I&#1055;&#1088;&#1077;&#1076;&#1089;&#1090;&#1072;&#1074;&#1083;&#1077;&#1085;&#1080;&#1077;</text><line style="stroke:#181818;stroke-width:0.5;" x1="812.86" x2="961.8053" y1="499" y2="499"/><line style="stroke:#181818;stroke-width:0.5;" x1="812.86" x2="961.8053" y1="507" y2="507"/></g><!--class ?????????????????????--><g class="entity" data-entity="....................." data-source-line="14" data-uid="ent0005" id="entity_....................."><rect fill="#F1F1F1" height="48" rx="2.5" ry="2.5" style="stroke:#181818;stroke-width:0.5;" width="219.5508" x="777.56" y="384"/><ellipse cx="792.56" cy="400" fill="#ADD1B2" rx="11" ry="11" style="stroke:#181818;stroke-width:1;"/><path d="M795.5288,405.6406 Q794.9506,405.9375 794.31,406.0781 Q793.6694,406.2344 792.9663,406.2344 Q790.4663,406.2344 789.1381,404.5938 Q787.8256,402.9375 787.8256,399.8125 Q787.8256,396.6875 789.1381,395.0313 Q790.4663,393.375 792.9663,393.375 Q793.6694,393.375 794.31,393.5313 Q794.9663,393.6875 795.5288,393.9844 L795.5288,396.7031 Q794.9038,396.125 794.31,395.8594 Q793.7163,395.5781 793.0913,395.5781 Q791.7475,395.5781 791.06,396.6563 Q790.3725,397.7188 790.3725,399.8125 Q790.3725,401.9063 791.06,402.9844 Q791.7475,404.0469 793.0913,404.0469 Q793.7163,404.0469 794.31,403.7813 Q794.9038,403.5 795.5288,402.9219 L795.5288,405.6406 Z " fill="#000000"/><text fill="#000000" font-family="Arial" font-size="14" lengthAdjust="spacing" textLength="187.5508" x="806.56" y="404.8467">&#1050;&#1086;&#1085;&#1090;&#1088;&#1086;&#1083;&#1083;&#1077;&#1088;&#1053;&#1072;&#1087;&#1088;&#1072;&#1074;&#1083;&#1077;&#1085;&#1080;&#1081;</text><line style="stroke:#181818;stroke-width:0.5;" x1="778.56" x2="996.1108" y1="416" y2="416"/><line style="stroke:#181818;stroke-width:0.5;" x1="778.56" x2="996.1108" y1="424" y2="424"/></g><!--class ??????????????????????--><g class="entity" data-entity="......................" data-source-line="15" data-uid="ent0006" id="entity_......................"><rect fill="#F1F1F1" height="48" rx="2.5" ry="2.5" style="stroke:#181818;stroke-width:0.5;" width="223.7344" x="775.47" y="301"/><ellipse cx="790.47" cy="317" fill="#ADD1B2" rx="11" ry="11" style="stroke:#181818;stroke-width:1;"/><path d="M793.4388,322.6406 Q792.8606,322.9375 792.22,323.0781 Q791.5794,323.2344 790.8763,323.2344 Q788.3763,323.2344 787.0481,321.5938 Q785.7356,319.9375 785.7356,316.8125 Q785.7356,313.6875 787.0481,312.0313 Q788.3763,310.375 790.8763,310.375 Q791.5794,310.375 792.22,310.5313 Q792.8763,310.6875 793.4388,310.9844 L793.4388,313.7031 Q792.8138,313.125 792.22,312.8594 Q791.6263,312.5781 791.0013,312.5781 Q789.6575,312.5781 788.97,313.6563 Q788.2825,314.7188 788.2825,316.8125 Q788.2825,318.9063 788.97,319.9844 Q789.6575,321.0469 791.0013,321.0469 Q791.6263,321.0469 792.22,320.7813 Q792.8138,320.5 793.4388,319.9219 L793.4388,322.6406 Z " fill="#000000"/><text fill="#000000" font-family="Arial" font-size="14" lengthAdjust="spacing" textLength="191.7344" x="804.47" y="321.8467">&#1050;&#1086;&#1085;&#1090;&#1088;&#1086;&#1083;&#1083;&#1077;&#1088;&#1058;&#1077;&#1089;&#1090;&#1080;&#1088;&#1086;&#1074;&#1072;&#1085;&#1080;&#1103;</text><line style="stroke:#181818;stroke-width:0.5;" x1="776.47" x2="998.2044" y1="333" y2="333"/><line style="stroke:#181818;stroke-width:0.5;" x1="776.47" x2="998.2044" y1="341" y2="341"/></g><!--class ?????????????????????--><g class="entity" data-entity="....................." data-source-line="16" data-uid="ent0007" id="entity_....................."><rect fill="#F1F1F1" height="56.2656" rx="2.5" ry="2.5" style="stroke:#181818;stroke-width:0.5;" width="216.5703" x="1310.44" y="182.87"/><ellipse cx="1325.44" cy="203.0028" fill="#ADD1B2" rx="11" ry="11" style="stroke:#181818;stroke-width:1;"/><path d="M1328.4088,208.6434 Q1327.8306,208.9403 1327.19,209.0809 Q1326.5494,209.2372 1325.8463,209.2372 Q1323.3463,209.2372 1322.0181,207.5966 Q1320.7056,205.9403 1320.7056,202.8153 Q1320.7056,199.6903 1322.0181,198.0341 Q1323.3463,196.3778 1325.8463,196.3778 Q1326.5494,196.3778 1327.19,196.5341 Q1327.8463,196.6903 1328.4088,196.9872 L1328.4088,199.7059 Q1327.7838,199.1278 1327.19,198.8622 Q1326.5963,198.5809 1325.9713,198.5809 Q1324.6275,198.5809 1323.94,199.6591 Q1323.2525,200.7216 1323.2525,202.8153 Q1323.2525,204.9091 1323.94,205.9872 Q1324.6275,207.0497 1325.9713,207.0497 Q1326.5963,207.0497 1327.19,206.7841 Q1327.7838,206.5028 1328.4088,205.9247 L1328.4088,208.6434 Z " fill="#000000"/><text fill="#000000" font-family="Arial" font-size="12" font-style="italic" lengthAdjust="spacing" textLength="59.918" x="1401.7662" y="199.0087">&#171;injector&#187;</text><text fill="#000000" font-family="Arial" font-size="14" lengthAdjust="spacing" textLength="184.5703" x="1339.44" y="214.8339">&#1050;&#1086;&#1085;&#1090;&#1077;&#1081;&#1085;&#1077;&#1088;&#1047;&#1072;&#1074;&#1080;&#1089;&#1080;&#1084;&#1086;&#1089;&#1090;&#1077;&#1081;</text><line style="stroke:#181818;stroke-width:0.5;" x1="1311.44" x2="1526.0103" y1="223.1356" y2="223.1356"/><line style="stroke:#181818;stroke-width:0.5;" x1="1311.44" x2="1526.0103" y1="231.1356" y2="231.1356"/></g><!--class ???????????????????--><g class="entity" data-entity="..................." data-source-line="17" data-uid="ent0008" id="entity_..................."><rect fill="#F1F1F1" height="137.75" rx="2.5" ry="2.5" style="stroke:#181818;stroke-width:0.5;" width="518.2012" x="628.23" y="41.13"/><ellipse cx="796.8828" cy="61.2628" fill="#ADD1B2" rx="11" ry="11" style="stroke:#181818;stroke-width:1;"/><path d="M799.8516,66.9034 Q799.2735,67.2003 798.6328,67.3409 Q797.9922,67.4972 797.2891,67.4972 Q794.7891,67.4972 793.461,65.8566 Q792.1485,64.2003 792.1485,61.0753 Q792.1485,57.9503 793.461,56.2941 Q794.7891,54.6378 797.2891,54.6378 Q797.9922,54.6378 798.6328,54.7941 Q799.2891,54.9503 799.8516,55.2472 L799.8516,57.9659 Q799.2266,57.3878 798.6328,57.1222 Q798.0391,56.8409 797.4141,56.8409 Q796.0703,56.8409 795.3828,57.9191 Q794.6953,58.9816 794.6953,61.0753 Q794.6953,63.1691 795.3828,64.2472 Q796.0703,65.3097 797.4141,65.3097 Q798.0391,65.3097 798.6328,65.0441 Q799.2266,64.7628 799.8516,64.1847 L799.8516,66.9034 Z " fill="#000000"/><text fill="#000000" font-family="Arial" font-size="12" font-style="italic" lengthAdjust="spacing" textLength="59.918" x="873.6216" y="57.2687">&#171;injector&#187;</text><text fill="#000000" font-family="Arial" font-size="14" lengthAdjust="spacing" textLength="172.3955" x="817.3828" y="73.0939">&#1050;&#1086;&#1085;&#1092;&#1080;&#1075;&#1091;&#1088;&#1072;&#1090;&#1086;&#1088;&#1057;&#1080;&#1089;&#1090;&#1077;&#1084;&#1099;</text><line style="stroke:#181818;stroke-width:0.5;" x1="629.23" x2="1145.4312" y1="81.3956" y2="81.3956"/><line style="stroke:#181818;stroke-width:0.5;" x1="629.23" x2="1145.4312" y1="89.3956" y2="89.3956"/><text fill="#000000" font-family="Arial" font-size="14" lengthAdjust="spacing" textLength="506.2012" x="634.23" y="106.3907">+&#1085;&#1072;&#1089;&#1090;&#1088;&#1086;&#1080;&#1090;&#1100;&#1047;&#1072;&#1074;&#1080;&#1089;&#1080;&#1084;&#1086;&#1089;&#1090;&#1080;(&#1082;&#1086;&#1085;&#1090;&#1077;&#1081;&#1085;&#1077;&#1088;: &#1050;&#1086;&#1085;&#1090;&#1077;&#1081;&#1085;&#1077;&#1088;&#1047;&#1072;&#1074;&#1080;&#1089;&#1080;&#1084;&#1086;&#1089;&#1090;&#1077;&#1081;): void</text><text fill="#000000" font-family="Arial" font-size="14" lengthAdjust="spacing" textLength="332.5" x="634.23" y="122.6876">+&#1089;&#1086;&#1079;&#1076;&#1072;&#1090;&#1100;&#1056;&#1077;&#1087;&#1086;&#1079;&#1080;&#1090;&#1086;&#1088;&#1080;&#1080;(): List&lt;I&#1056;&#1077;&#1087;&#1086;&#1079;&#1080;&#1090;&#1086;&#1088;&#1080;&#1081;&gt;</text><text fill="#000000" font-family="Arial" font-size="14" lengthAdjust="spacing" textLength="459.8398" x="634.23" y="138.9845">+&#1089;&#1086;&#1079;&#1076;&#1072;&#1090;&#1100;&#1050;&#1086;&#1085;&#1090;&#1088;&#1086;&#1083;&#1083;&#1077;&#1088;&#1099;(&#1088;&#1077;&#1087;&#1086;&#1079;&#1080;&#1090;&#1086;&#1088;&#1080;&#1080;: List): List&lt;I&#1050;&#1086;&#1085;&#1090;&#1088;&#1086;&#1083;&#1083;&#1077;&#1088;&gt;</text><text fill="#000000" font-family="Arial" font-size="14" lengthAdjust="spacing" textLength="503.5693" x="634.23" y="155.2814">+&#1089;&#1086;&#1079;&#1076;&#1072;&#1090;&#1100;&#1055;&#1088;&#1077;&#1076;&#1089;&#1090;&#1072;&#1074;&#1083;&#1077;&#1085;&#1080;&#1103;(&#1082;&#1086;&#1085;&#1090;&#1088;&#1086;&#1083;&#1083;&#1077;&#1088;&#1099;: List): List&lt;I&#1055;&#1088;&#1077;&#1076;&#1089;&#1090;&#1072;&#1074;&#1083;&#1077;&#1085;&#1080;&#1077;&gt;</text><text fill="#000000" font-family="Arial" font-size="14" lengthAdjust="spacing" textLength="211.1621" x="634.23" y="171.5782">+&#1089;&#1074;&#1103;&#1079;&#1072;&#1090;&#1100;&#1050;&#1086;&#1084;&#1087;&#1086;&#1085;&#1077;&#1085;&#1090;&#1099;(): void</text></g><!--class ???????????????????????????--><g class="entity" data-entity="..........................." data-source-line="20" data-uid="ent0009" id="entity_..........................."><rect fill="#F1F1F1" height="88.8594" rx="2.5" ry="2.5" style="stroke:#181818;stroke-width:0.5;" width="276.2344" x="22" y="325.57"/><ellipse cx="37" cy="345.7028" fill="#ADD1B2" rx="11" ry="11" style="stroke:#181818;stroke-width:1;"/><path d="M39.9688,351.3434 Q39.3906,351.6403 38.75,351.7809 Q38.1094,351.9372 37.4063,351.9372 Q34.9063,351.9372 33.5781,350.2966 Q32.2656,348.6403 32.2656,345.5153 Q32.2656,342.3903 33.5781,340.7341 Q34.9063,339.0778 37.4063,339.0778 Q38.1094,339.0778 38.75,339.2341 Q39.4063,339.3903 39.9688,339.6872 L39.9688,342.4059 Q39.3438,341.8278 38.75,341.5622 Q38.1563,341.2809 37.5313,341.2809 Q36.1875,341.2809 35.5,342.3591 Q34.8125,343.4216 34.8125,345.5153 Q34.8125,347.6091 35.5,348.6872 Q36.1875,349.7497 37.5313,349.7497 Q38.1563,349.7497 38.75,349.4841 Q39.3438,349.2028 39.9688,348.6247 L39.9688,351.3434 Z " fill="#000000"/><text fill="#000000" font-family="Arial" font-size="12" font-style="italic" lengthAdjust="spacing" textLength="44.666" x="150.7842" y="341.7087">&#171;main&#187;</text><text fill="#000000" font-family="Arial" font-size="14" lengthAdjust="spacing" textLength="244.2344" x="51" y="357.5339">&#1055;&#1088;&#1080;&#1083;&#1086;&#1078;&#1077;&#1085;&#1080;&#1077;&#1057;&#1080;&#1089;&#1090;&#1077;&#1084;&#1072;&#1059;&#1087;&#1088;&#1072;&#1074;&#1083;&#1077;&#1085;&#1080;&#1103;</text><line style="stroke:#181818;stroke-width:0.5;" x1="23" x2="297.2344" y1="365.8356" y2="365.8356"/><line style="stroke:#181818;stroke-width:0.5;" x1="23" x2="297.2344" y1="373.8356" y2="373.8356"/><text fill="#000000" font-family="Arial" font-size="14" lengthAdjust="spacing" textLength="188.8154" x="28" y="390.8307">+main(args: String[]): void</text><text fill="#000000" font-family="Arial" font-size="14" lengthAdjust="spacing" textLength="263.4707" x="28" y="407.1276">+&#1080;&#1085;&#1080;&#1094;&#1080;&#1072;&#1083;&#1080;&#1079;&#1080;&#1088;&#1086;&#1074;&#1072;&#1090;&#1100;&#1057;&#1080;&#1089;&#1090;&#1077;&#1084;&#1091;(): void</text></g><!--link ??????????????????????????? to ?????????????????????--><g class="link" data-entity-1="..........................." data-entity-2="....................." data-source-line="37" data-uid="lnk10" id="link_..........................._....................."><path codeLine="37" d="M309.9445,323.0517 C320.0145,320.4717 318.44,321.07 328.23,319 C682.77,244.24 1107.4038,221.1542 1304.2238,214.1242" fill="none" id="&#1055;&#1088;&#1080;&#1083;&#1086;&#1078;&#1077;&#1085;&#1080;&#1077;&#1057;&#1080;&#1089;&#1090;&#1077;&#1084;&#1072;&#1059;&#1087;&#1088;&#1072;&#1074;&#1083;&#1077;&#1085;&#1080;&#1103;-&#1050;&#1086;&#1085;&#1090;&#1077;&#1081;&#1085;&#1077;&#1088;&#1047;&#1072;&#1074;&#1080;&#1089;&#1080;&#1084;&#1086;&#1089;&#1090;&#1077;&#1081;" style="stroke:#181818;stroke-width:1;"/><polygon fill="#181818" points="298.32,326.03,305.125,328.4157,309.9445,323.0517,303.1395,320.666,298.32,326.03" style="stroke:#181818;stroke-width:1;"/><polygon fill="#181818" points="1310.22,213.91,1301.083,210.2338,1305.2232,214.0885,1301.3685,218.2287,1310.22,213.91" style="stroke:#181818;stroke-width:1;"/><text fill="#000000" font-family="Arial" font-size="13" lengthAdjust="spacing" textLength="73.0742" x="850.83" y="218.0669">&#1082;&#1086;&#1085;&#1090;&#1077;&#1081;&#1085;&#1077;&#1088;</text><text fill="#000000" font-family="Arial" font-size="13" lengthAdjust="spacing" textLength="8.271" x="306.1041" y="336.1061">1</text><text fill="#000000" font-family="Arial" font-size="13" lengthAdjust="spacing" textLength="8.271" x="1294.319" y="226.7133">1</text></g><!--link ??????????????????????????? to ???????????????????--><g class="link" data-entity-1="..........................." data-entity-2="..................." data-source-line="38" data-uid="lnk11" id="link_..........................._..................."><path codeLine="38" d="M199.42,325.11 C230.66,291.48 277.74,247.11 328.23,222 C420.48,176.13 524.229,150.0207 621.829,134.0207" fill="none" id="&#1055;&#1088;&#1080;&#1083;&#1086;&#1078;&#1077;&#1085;&#1080;&#1077;&#1057;&#1080;&#1089;&#1090;&#1077;&#1084;&#1072;&#1059;&#1087;&#1088;&#1072;&#1074;&#1083;&#1077;&#1085;&#1080;&#1103;-to-&#1050;&#1086;&#1085;&#1092;&#1080;&#1075;&#1091;&#1088;&#1072;&#1090;&#1086;&#1088;&#1057;&#1080;&#1089;&#1090;&#1077;&#1084;&#1099;" style="stroke:#181818;stroke-width:1;"/><polygon fill="#181818" points="627.75,133.05,618.2215,130.5587,622.8159,133.8589,619.5157,138.4533,627.75,133.05" style="stroke:#181818;stroke-width:1;"/><text fill="#000000" font-family="Arial" font-size="13" lengthAdjust="spacing" textLength="98.3887" x="414.23" y="136.0669">&#1082;&#1086;&#1085;&#1092;&#1080;&#1075;&#1091;&#1088;&#1072;&#1090;&#1086;&#1088;</text><text fill="#000000" font-family="Arial" font-size="13" lengthAdjust="spacing" textLength="8.271" x="611.929" y="146.0257">1</text></g><!--link ??????????????????????????? to IController--><g class="link" data-entity-1="..........................." data-entity-2="IController" data-source-line="42" data-uid="lnk12" id="link_..........................._IController"><path codeLine="42" d="M212.6056,422.9696 C244.0356,452.8596 280.7,481.99 328.23,502 C497.29,573.16 712.5612,578.79 818.5312,576.67" fill="none" id="&#1055;&#1088;&#1080;&#1083;&#1086;&#1078;&#1077;&#1085;&#1080;&#1077;&#1057;&#1080;&#1089;&#1090;&#1077;&#1084;&#1072;&#1059;&#1087;&#1088;&#1072;&#1074;&#1083;&#1077;&#1085;&#1080;&#1103;-IController" style="stroke:#181818;stroke-width:1;"/><polygon fill="none" points="203.91,414.7,205.5013,421.7333,212.6056,422.9696,211.0143,415.9362,203.91,414.7" style="stroke:#181818;stroke-width:1;"/><polygon fill="#181818" points="824.53,576.55,815.4518,572.7308,819.531,576.65,815.6118,580.7292,824.53,576.55" style="stroke:#181818;stroke-width:1;"/><text fill="#000000" font-family="Arial" font-size="13" lengthAdjust="spacing" textLength="230.4009" x="348.23" y="498.0669">&#1082;&#1086;&#1085;&#1090;&#1088;&#1086;&#1083;&#1083;&#1077;&#1088;&#1099;: List&lt;I&#1050;&#1086;&#1085;&#1090;&#1088;&#1086;&#1083;&#1083;&#1077;&#1088;&gt;</text><text fill="#000000" font-family="Arial" font-size="13" lengthAdjust="spacing" textLength="8.271" x="201.7745" y="434.4436">1</text><text fill="#000000" font-family="Arial" font-size="13" lengthAdjust="spacing" textLength="23.0356" x="793.8691" y="589.6601">1..*</text></g><!--link ??????????????????????????? to IPresentation--><g class="link" data-entity-1="..........................." data-entity-2="IPresentation" data-source-line="43" data-uid="lnk13" id="link_..........................._IPresentation"><path codeLine="43" d="M272.955,419.1725 C294.545,427.3325 306.25,430.69 328.23,436 C497.87,477.01 697.5718,487.4035 805.6618,490.0435" fill="none" id="&#1055;&#1088;&#1080;&#1083;&#1086;&#1078;&#1077;&#1085;&#1080;&#1077;&#1057;&#1080;&#1089;&#1090;&#1077;&#1084;&#1072;&#1059;&#1087;&#1088;&#1072;&#1074;&#1083;&#1077;&#1085;&#1080;&#1103;-IPresentation" style="stroke:#181818;stroke-width:1;"/><polygon fill="none" points="261.73,414.93,265.9283,420.7929,272.955,419.1725,268.7567,413.3096,261.73,414.93" style="stroke:#181818;stroke-width:1;"/><polygon fill="#181818" points="811.66,490.19,802.7604,485.9714,806.6615,490.0679,802.565,493.9691,811.66,490.19" style="stroke:#181818;stroke-width:1;"/><text fill="#000000" font-family="Arial" font-size="13" lengthAdjust="spacing" textLength="268.6328" x="329.23" y="432.0669">&#1087;&#1088;&#1077;&#1076;&#1089;&#1090;&#1072;&#1074;&#1083;&#1077;&#1085;&#1080;&#1103;: List&lt;I&#1055;&#1088;&#1077;&#1076;&#1089;&#1090;&#1072;&#1074;&#1083;&#1077;&#1085;&#1080;&#1077;&gt;</text><text fill="#000000" font-family="Arial" font-size="13" lengthAdjust="spacing" textLength="8.271" x="267.4759" y="434.3792">1</text><text fill="#000000" font-family="Arial" font-size="13" lengthAdjust="spacing" textLength="23.0356" x="780.8978" y="502.8586">1..*</text></g><!--link ??????????????????????????? to ?????????????????????--><g class="link" data-entity-1="..........................." data-entity-2="....................." data-source-line="45" data-uid="lnk14" id="link_..........................._....................."><path codeLine="45" d="M298.61,394.69 C308.62,395.98 318.57,397.11 328.23,398 C483.72,412.34 658.5607,412.6848 771.2607,410.9048" fill="none" id="&#1055;&#1088;&#1080;&#1083;&#1086;&#1078;&#1077;&#1085;&#1080;&#1077;&#1057;&#1080;&#1089;&#1090;&#1077;&#1084;&#1072;&#1059;&#1087;&#1088;&#1072;&#1074;&#1083;&#1077;&#1085;&#1080;&#1103;-to-&#1050;&#1086;&#1085;&#1090;&#1088;&#1086;&#1083;&#1083;&#1077;&#1088;&#1053;&#1072;&#1087;&#1088;&#1072;&#1074;&#1083;&#1077;&#1085;&#1080;&#1081;" style="stroke:#181818;stroke-width:1;stroke-dasharray:7,7;"/><polygon fill="#181818" points="777.26,410.81,768.198,406.9526,772.2606,410.889,768.3243,414.9516,777.26,410.81" style="stroke:#181818;stroke-width:1;"/><text fill="#000000" font-family="Arial" font-size="13" lengthAdjust="spacing" textLength="94.104" x="416.23" y="394.0669">&#171;&#1080;&#1089;&#1087;&#1086;&#1083;&#1100;&#1079;&#1091;&#1077;&#1090;&#187;</text></g><!--link ??????????????????????????? to ??????????????????????--><g class="link" data-entity-1="..........................." data-entity-2="......................" data-source-line="46" data-uid="lnk15" id="link_..........................._......................"><path codeLine="46" d="M298.38,361.48 C436.56,352.91 641.0815,340.2217 769.1715,332.2717" fill="none" id="&#1055;&#1088;&#1080;&#1083;&#1086;&#1078;&#1077;&#1085;&#1080;&#1077;&#1057;&#1080;&#1089;&#1090;&#1077;&#1084;&#1072;&#1059;&#1087;&#1088;&#1072;&#1074;&#1083;&#1077;&#1085;&#1080;&#1103;-to-&#1050;&#1086;&#1085;&#1090;&#1088;&#1086;&#1083;&#1083;&#1077;&#1088;&#1058;&#1077;&#1089;&#1090;&#1080;&#1088;&#1086;&#1074;&#1072;&#1085;&#1080;&#1103;" style="stroke:#181818;stroke-width:1;stroke-dasharray:7,7;"/><polygon fill="#181818" points="775.16,331.9,765.9295,328.4652,770.1696,332.2097,766.4251,336.4498,775.16,331.9" style="stroke:#181818;stroke-width:1;"/><text fill="#000000" font-family="Arial" font-size="13" lengthAdjust="spacing" textLength="94.104" x="416.23" y="340.0669">&#171;&#1080;&#1089;&#1087;&#1086;&#1083;&#1100;&#1079;&#1091;&#1077;&#1090;&#187;</text></g><!--link ??????????????????? to ?????????????????????--><g class="link" data-entity-1="..................." data-entity-2="....................." data-source-line="50" data-uid="lnk16" id="link_..................._....................."><path codeLine="50" d="M1146.82,159.32 C1204.57,170.33 1256.8063,180.2953 1304.3363,189.3653" fill="none" id="&#1050;&#1086;&#1085;&#1092;&#1080;&#1075;&#1091;&#1088;&#1072;&#1090;&#1086;&#1088;&#1057;&#1080;&#1089;&#1090;&#1077;&#1084;&#1099;-to-&#1050;&#1086;&#1085;&#1090;&#1077;&#1081;&#1085;&#1077;&#1088;&#1047;&#1072;&#1074;&#1080;&#1089;&#1080;&#1084;&#1086;&#1089;&#1090;&#1077;&#1081;" style="stroke:#181818;stroke-width:1;stroke-dasharray:7,7;"/><polygon fill="#181818" points="1310.23,190.49,1302.1393,184.8739,1305.3186,189.5528,1300.6397,192.7321,1310.23,190.49" style="stroke:#181818;stroke-width:1;"/><text fill="#000000" font-family="Arial" font-size="13" lengthAdjust="spacing" textLength="102.959" x="1177.44" y="163.0669">&#171;&#1085;&#1072;&#1089;&#1090;&#1088;&#1072;&#1080;&#1074;&#1072;&#1077;&#1090;&#187;</text></g><!--SRC=[jLPTQzDG6BxlhtZfZTradTExKW9340eYmYx5YzXbDQvBHf9veGpMpkbWmufUJ0P-pJzGMclJTMt_mZd_oEUSz2DDJhhLQWP9Tzwlvtc_ahAnvP5dasEMddkqQJf6qJDjA-LkczQkxkWxL2phhhlkUOxvRCyp2aNRsZ1V6NGdfB9fREbxPU-1RNcFz1s3rXrJBwTIgLszkAsN34gp2zRdxzWbgxEF_8ZrsIzMJzFhL8fmtI9s1a6JTVaXFuQIJv1tUOtmkylglC8hC6aGyraR8dx03w7jyoE2e0jHYpMa9tcJU2bTOEUGz7YL7-3PnL-B7wH9Twbm7pWTkrmsd6c3Rr1jmN-5Lu6d8KnO3q5RWTbZnt0DozDbViRXW5uHY9zG1WWhR23E-2bhWzjxw5HuRPMrfNjV_CEhIo4GAbVi2xG7U8OXTQupki1TyF3bQGF6C4DA5NPmsO5KM9sDW2745KfM2QIKpvlM2tI6xMXQtCCRQ3V13n2XtyVpXoGdRA-GYPZrC75hMMAVH8KHiyTF46TIS9BLy6LvVmUaUIqSEYR6FHGMJdz6imRw-VoERbgQXjwZuNMRn556TqfkZZRGvbRfoTEb7BsqpSsG4W885s_nhCCXMd6IM-J-T8hpOIRiO3zC-cvMf6tCCfv14S5VBCbJx01Rn0hQmvTGLMNsCqX-f1zoS_H8F6DoQjjYr6NGxz0Qo1D_I00yHPuUcgwNBoZb7ItPdtBgCdA4Os6289DO2jiPaHBs0g-DKpOD8XejSQz4OZPuJQo6CRihIQGdj75s4kcfOJ_bSH7x2jSzi3qUTxg6AnKQj0_e7W6Z6RIOsAxZsKEK9kkJd9V8oCNN63XMATuh9DRsfRfLWnNtboERNalJyigA9d_CiRDo2f2Bu10GmXYk6yXSOZgYwq0vZgliSpZlaoNEMkgD7xmXAR7REgFNLRZiBKNHnM5RR8sWqd0vgmCYRpsXFaYQbqNRm0xQ89jTJeVVug5IgmPnrhp_Ap3XRmC19p45DrqAYw3BPhKvlYHoM26g2clQVy6Gy64o0yLeYztB9euU2Mh3brmTmiQeUS_L6-1c4omupBTnmA6d0Y9OxFy1]--></g></svg>